<svg id="enOU4GYT8kC1" xmlns="http://www.w3.org/2000/svg" xmlns:xlink="http://www.w3.org/1999/xlink" viewBox="0 0 200 200" shape-rendering="geometricPrecision" text-rendering="geometricPrecision" project-id="37d685b01ba44e3cad9486c1b58f0cb7" export-id="d8b7974e0d724aa088a16080a859d669" cached="false"><defs><filter id="enOU4GYT8kC6-filter" x="-150%" y="-150%" width="400%" height="400%"><feColorMatrix id="enOU4GYT8kC6-filter-sepia-0" type="matrix" values="1 0 0 0 0 0 1 0 0 0 0 0 1 0 0 0 0 0 1 0" result="result"/></filter><filter id="enOU4GYT8kC8-filter" x="-150%" y="-150%" width="400%" height="400%"><feGaussianBlur id="enOU4GYT8kC8-filter-drop-shadow-0-blur" in="SourceAlpha" stdDeviation="9,0"/><feOffset id="enOU4GYT8kC8-filter-drop-shadow-0-offset" dx="5" dy="0" result="tmp"/><feFlood id="enOU4GYT8kC8-filter-drop-shadow-0-flood" flood-color="#000"/><feComposite id="enOU4GYT8kC8-filter-drop-shadow-0-composite" operator="in" in2="tmp"/><feMerge id="enOU4GYT8kC8-filter-drop-shadow-0-merge" result="result"><feMergeNode id="enOU4GYT8kC8-filter-drop-shadow-0-merge-node-1"/><feMergeNode id="enOU4GYT8kC8-filter-drop-shadow-0-merge-node-2" in="SourceGraphic"/></feMerge></filter><filter id="enOU4GYT8kC9-filter" x="-150%" y="-150%" width="400%" height="400%"><feGaussianBlur id="enOU4GYT8kC9-filter-drop-shadow-0-blur" in="SourceAlpha" stdDeviation="0,0"/><feOffset id="enOU4GYT8kC9-filter-drop-shadow-0-offset" dx="0" dy="0" result="tmp"/><feFlood id="enOU4GYT8kC9-filter-drop-shadow-0-flood" flood-color="rgba(0,0,0,0)"/><feComposite id="enOU4GYT8kC9-filter-drop-shadow-0-composite" operator="in" in2="tmp"/><feMerge id="enOU4GYT8kC9-filter-drop-shadow-0-merge" result="result"><feMergeNode id="enOU4GYT8kC9-filter-drop-shadow-0-merge-node-1"/><feMergeNode id="enOU4GYT8kC9-filter-drop-shadow-0-merge-node-2" in="SourceGraphic"/></feMerge></filter><filter id="enOU4GYT8kC17-filter" x="-150%" y="-150%" width="400%" height="400%"><feGaussianBlur id="enOU4GYT8kC17-filter-drop-shadow-0-blur" in="SourceAlpha" stdDeviation="9,0"/><feOffset id="enOU4GYT8kC17-filter-drop-shadow-0-offset" dx="5" dy="0" result="tmp"/><feFlood id="enOU4GYT8kC17-filter-drop-shadow-0-flood" flood-color="#000"/><feComposite id="enOU4GYT8kC17-filter-drop-shadow-0-composite" operator="in" in2="tmp"/><feMerge id="enOU4GYT8kC17-filter-drop-shadow-0-merge" result="result"><feMergeNode id="enOU4GYT8kC17-filter-drop-shadow-0-merge-node-1"/><feMergeNode id="enOU4GYT8kC17-filter-drop-shadow-0-merge-node-2" in="SourceGraphic"/></feMerge></filter><filter id="enOU4GYT8kC18-filter" x="-150%" y="-150%" width="400%" height="400%"><feGaussianBlur id="enOU4GYT8kC18-filter-drop-shadow-0-blur" in="SourceAlpha" stdDeviation="0,0"/><feOffset id="enOU4GYT8kC18-filter-drop-shadow-0-offset" dx="0" dy="0" result="tmp"/><feFlood id="enOU4GYT8kC18-filter-drop-shadow-0-flood" flood-color="#b8e2c6"/><feComposite id="enOU4GYT8kC18-filter-drop-shadow-0-composite" operator="in" in2="tmp"/><feMerge id="enOU4GYT8kC18-filter-drop-shadow-0-merge" result="result"><feMergeNode id="enOU4GYT8kC18-filter-drop-shadow-0-merge-node-1"/><feMergeNode id="enOU4GYT8kC18-filter-drop-shadow-0-merge-node-2" in="SourceGraphic"/></feMerge></filter></defs><g transform="translate(0-.616111)" mask="url(#enOU4GYT8kC4)"><rect width="153.058609" height="156.439621" rx="0" ry="0" transform="matrix(1.127638 0 0 1.110361 27.405296-.00001)" fill="#5f7466" stroke="rgba(201,228,29,0)"/><mask id="enOU4GYT8kC4" mask-type="luminance" x="-150%" y="-150%" height="400%" width="400%"><rect width="153.058609" height="156.439621" rx="0" ry="0" transform="matrix(1.127638 0 0 1.110361 27.405296-.00001)" fill="#fff" stroke="rgba(201,228,29,0)"/><ellipse rx="12" ry="12" transform="translate(114.879347 85.131636)" filter="url(#enOU4GYT8kC6-filter)" stroke-width="0"/></mask></g><g transform="matrix(-1.004384 0 0 1 227.532318-.576478)"><rect width="7.681732" height="20.488573" rx="0" ry="0" transform="matrix(0-1.783452 8.349234 0 28.131012 188.575348)" filter="url(#enOU4GYT8kC8-filter)" fill="#b8e2c6" stroke-width="0"/><rect width="15.36643" height="20.488573" rx="0" ry="0" transform="matrix(0 1.783452 8.349234 0 28.637016 173.66481)" filter="url(#enOU4GYT8kC9-filter)" fill="#b8e2c6" stroke-width="0"/><g><rect width="15.36643" height="20.488573" rx="0" ry="0" transform="matrix(.065859 0.11407-.917287 0.529596 51.54134 179.972504)" fill="#4e5e53" stroke-width="0" stroke-miterlimit="7"/><rect width="15.36643" height="20.488573" rx="0" ry="0" transform="matrix(.065859 0.11407-.917287 0.529596 193.561218 179.972504)" fill="#4e5e53" stroke-width="0" stroke-miterlimit="7"/><rect width="15.36643" height="20.488573" rx="0" ry="0" transform="matrix(.065859 0.11407-.917287 0.529596 158.053909 179.378067)" fill="#4e5e53" stroke-width="0" stroke-miterlimit="7"/><rect width="15.36643" height="20.488573" rx="0" ry="0" transform="matrix(.065859 0.11407-.917287 0.529596 122.553902 179.378067)" fill="#4e5e53" stroke-width="0" stroke-miterlimit="7"/><rect width="15.36643" height="20.488573" rx="0" ry="0" transform="matrix(.065859 0.11407-.917287 0.529596 87.053902 179.970001)" fill="#4e5e53" stroke-width="0" stroke-miterlimit="7"/></g></g><g transform="matrix(0 1.015436 1 0-170.290138-27.743821)"><rect width="7.681732" height="20.488573" rx="0" ry="0" transform="matrix(0 1.783452 8.349234 0 27.907495 183.737228)" filter="url(#enOU4GYT8kC17-filter)" fill="#b8e2c6" stroke-width="0"/><rect width="15.36643" height="20.488573" rx="0" ry="0" transform="matrix(0 1.783452 8.349234 0 27.907495 169.737228)" filter="url(#enOU4GYT8kC18-filter)" fill="#b8e2c6" stroke-width="0"/><g><rect width="15.36643" height="20.488573" rx="0" ry="0" transform="matrix(.065859 0.11407-.917287 0.529596 51.54134 179.972504)" fill="#4e5e53" stroke-width="0" stroke-miterlimit="7"/><rect width="15.36643" height="20.488573" rx="0" ry="0" transform="matrix(.065859 0.11407-.917287 0.529596 193.561218 179.972504)" fill="#4e5e53" stroke-width="0" stroke-miterlimit="7"/><rect width="15.36643" height="20.488573" rx="0" ry="0" transform="matrix(.065859 0.11407-.917287 0.529596 158.053909 179.378067)" fill="#4e5e53" stroke-width="0" stroke-miterlimit="7"/><rect width="15.36643" height="20.488573" rx="0" ry="0" transform="matrix(.065859 0.11407-.917287 0.529596 122.553902 179.378067)" fill="#4e5e53" stroke-width="0" stroke-miterlimit="7"/><rect width="15.36643" height="20.488573" rx="0" ry="0" transform="matrix(.065859 0.11407-.917287 0.529596 87.053902 179.970001)" fill="#4e5e53" stroke-width="0" stroke-miterlimit="7"/></g></g><g transform="translate(.000001 0.000001)"><rect width="20" height="20" rx="0" ry="0" transform="matrix(1.357354 0 0 1.313946 0.000007 173.721085)" fill="#b8e2c6" stroke-width="0"/><polygon points="-5.770508,-20 5.779492,0 -17.320508,0 -5.770508,-20" transform="matrix(0 1-1 0 8.149735 193.244192)" fill="#f00" stroke-width="0"/></g></svg>
